<svg width="360" height="360" viewBox="0 0 360 360" fill="none" xmlns="http://www.w3.org/2000/svg">
<g clip-path="url(#clip0_190_55)">
<path d="M360 185.362L282.645 265.185C282.645 265.185 281.693 264.829 279.878 264.236C277.915 263.585 274.968 262.636 271.13 261.54C262.919 259.141 250.661 255.94 235.546 253.156C228.555 251.852 220.968 250.637 212.875 249.629C203.949 248.503 194.429 247.644 184.462 247.171C182.795 247.082 181.1 247.023 179.404 246.964C166.343 246.519 152.537 246.785 138.377 248.09C131.386 248.742 124.333 249.631 117.223 250.846C114.725 251.231 112.225 251.705 109.696 252.209C102.913 253.512 96.0696 255.143 89.2566 257.098C85.3002 258.194 81.3132 259.409 77.355 260.743C73.3086 262.105 69.2928 263.587 65.2752 265.187L0 197.037L172.382 0L360 185.362Z" fill="#E2E2C1"/>
<path d="M285.621 161.481L279.879 264.236C277.915 263.585 274.968 262.636 271.131 261.54C262.919 259.14 250.661 255.94 235.546 253.155C228.555 251.852 220.968 250.637 212.875 249.629C203.949 248.502 194.429 247.644 184.462 247.17C182.796 247.082 181.1 247.023 179.404 246.963C166.344 246.519 152.538 246.785 138.377 248.09C131.386 248.742 124.333 249.631 117.223 250.846C114.725 251.231 112.225 251.705 109.696 252.209C102.913 253.512 96.0698 255.143 89.2568 257.097V164.444L112.106 153.066L113.058 152.593L124.96 153.097V96.2963L181.489 57.7781L217.192 90.3707L220.167 137.777L247.777 132.591L285.621 161.481Z" fill="#B7B78C"/>
<path d="M333.223 303.703L273.224 360C273.224 360 212.232 280.001 57.0256 360C57.0256 360 133.886 291.852 252.893 321.482C252.893 321.482 178.513 274.075 41.6536 345.186C41.6536 345.186 139.835 262.222 276.696 309.631C276.696 309.631 196.365 247.408 23.803 327.409C23.803 327.409 154.712 238.52 291.571 294.817C291.571 294.817 178.513 223.706 8.92603 315.558C8.92603 315.556 199.339 191.111 333.223 303.703Z" fill="#E2E2C1"/>
<path d="M273.719 173.333L271.13 261.54C262.919 259.141 250.661 255.94 235.546 253.156V146.164L273.719 173.333Z" fill="#0026A5"/>
<path d="M212.877 249.629C203.951 248.503 194.431 247.644 184.464 247.171C182.797 247.082 181.102 247.023 179.406 246.964L169.587 75.5567C169.587 75.5567 202.174 104.758 202.315 105.187C206.415 126.715 207.263 158.805 207.263 158.805L212.877 249.629Z" fill="#0026A5"/>
<path d="M235.546 146.164V253.156C228.555 251.852 220.968 250.637 212.875 249.629C203.949 248.503 194.429 247.644 184.462 247.171V158.519L205.825 153.364L235.546 146.164Z" fill="#3F9EFF"/>
<path d="M109.696 252.207C102.913 253.51 96.0696 255.141 89.2566 257.096C85.3002 258.192 81.3132 259.407 77.355 260.741V176.296L107.107 161.482L109.696 252.207Z" fill="#3F9EFF"/>
<path d="M138.377 248.089C131.386 248.74 124.333 249.629 117.223 250.844C114.725 251.23 112.225 251.703 109.696 252.207L107.107 161.482L112.64 163.051L127.933 167.407L138.377 248.089Z" fill="#0026A5"/>
<path d="M179.406 246.964C166.345 246.519 152.539 246.785 138.378 248.09C131.387 248.742 124.335 249.631 117.225 250.846C117.225 250.846 113.141 135.16 110.084 114.077C110.595 114.048 169.106 76.0465 169.589 75.5587C179.46 107.64 179.406 246.964 179.406 246.964Z" fill="#3F9EFF"/>
<path d="M120.769 117.695L127.805 113.648V128.02L120.769 132.03V117.695Z" fill="white"/>
<path d="M122.53 145.987L129.564 142.843V154.42L122.53 157.082V145.987Z" fill="white"/>
<path d="M124.288 172.836L131.323 170.681V181.715L124.288 183.494V172.836Z" fill="white"/>
<path d="M124.288 200.48L131.323 198.695V208.625L124.288 209.729V200.48Z" fill="white"/>
<path d="M124.288 226.962L131.323 226.067V236.07L124.288 236.603V226.962Z" fill="#0026A5"/>
<path d="M138.357 107.579L146.272 103.034V117.502L138.357 122.011V107.579Z" fill="white"/>
<path d="M140.115 137.383L148.03 133.835V146.702L140.115 149.697V137.383Z" fill="white"/>
<path d="M141.874 166.424L149.789 164V176.015L141.874 178.02V166.424Z" fill="white"/>
<path d="M141.874 195.788L149.789 193.781V205.481L141.874 206.725V195.788Z" fill="white"/>
<path d="M141.874 224.728L149.789 223.729V234.659L141.874 235.264V224.728Z" fill="#0026A5"/>
<path d="M82.6738 179.617L89.71 176.474V188.051L82.6738 190.714V179.617Z" fill="white"/>
<path d="M82.7371 200.322L89.7715 198.167V209.203L82.7371 210.98V200.322Z" fill="#0026A5"/>
<path d="M82.7371 221.825L89.7715 220.037V229.97L82.7371 231.073V221.825Z" fill="#0026A5"/>
<path d="M82.7371 242.161L89.7715 241.268V251.269L82.7371 251.804V242.161Z" fill="#0026A5"/>
<path d="M93.4775 174.278L101.392 170.73V183.596L93.4775 186.59V174.278Z" fill="white"/>
<path d="M94.3882 196.088L102.303 193.662V205.677L94.3882 207.684V196.088Z" fill="white"/>
<path d="M94.3882 218.219L102.303 216.214V227.914L94.3882 229.156V218.219Z" fill="#0026A5"/>
<path d="M94.3882 239.929L102.303 238.93V249.86L94.3882 250.465V239.929Z" fill="#0026A5"/>
<path d="M164.738 92.4103V106.974L156.825 111.485V96.9643L164.738 92.4103Z" fill="white"/>
<path d="M158.583 128.344L166.496 124.798V138.94L158.583 141.935V128.344Z" fill="white"/>
<path d="M160.342 159.71L168.257 157.284V170.28L160.342 172.287V159.71Z" fill="white"/>
<path d="M160.342 190.849L168.257 188.843V202.313L160.342 203.566V190.849Z" fill="#0026A5"/>
<path d="M160.342 222.39L168.257 221.384V233.258L160.342 233.863V222.39Z" fill="#0026A5"/>
<path d="M190.856 168.763L202.273 165.184L202.383 182.552L190.962 185.524L190.856 168.763Z" fill="white"/>
<path d="M191.112 198.209L202.534 195.239L202.641 212.152L191.212 214.022L191.112 198.209Z" fill="white"/>
<path d="M191.353 227.048L202.784 225.535L202.885 241.333L191.45 242.278L191.353 227.048Z" fill="#0026A5"/>
<path d="M217.498 160.418L228.917 156.839L229.036 175.626L217.613 178.596L217.498 160.418Z" fill="white"/>
<path d="M217.764 191.668L229.187 188.698L229.309 208.168L217.879 210.049L217.764 191.668Z" fill="#0026A5"/>
<path d="M218.027 223.502L229.459 221.974L229.567 239.141L218.131 240.086L218.027 223.502Z" fill="#0026A5"/>
</g>
<defs>
<clipPath id="clip0_190_55">
<rect width="360" height="360" fill="white"/>
</clipPath>
</defs>
</svg>
