<svg width="200" height="200" viewBox="0 0 200 200" fill="none" xmlns="http://www.w3.org/2000/svg">
<g clip-path="url(#clip0_38_274)">
<path d="M200 102.979L157.025 147.325C157.025 147.325 156.496 147.127 155.488 146.798C154.397 146.436 152.76 145.909 150.628 145.3C146.066 143.967 139.256 142.189 130.859 140.642C126.975 139.918 122.76 139.243 118.264 138.683C113.305 138.057 108.016 137.58 102.479 137.317C101.553 137.268 100.611 137.235 99.669 137.202C92.413 136.955 84.743 137.103 76.876 137.828C72.992 138.19 69.074 138.684 65.124 139.359C63.736 139.573 62.347 139.836 60.942 140.116C57.174 140.84 53.372 141.746 49.587 142.832C47.389 143.441 45.174 144.116 42.975 144.857C40.727 145.614 38.496 146.437 36.264 147.326L0 109.465L95.768 0L200 102.979Z" fill="#E2E2C1"/>
<path d="M158.678 89.7116L155.488 146.798C154.397 146.436 152.76 145.909 150.628 145.3C146.066 143.967 139.256 142.189 130.859 140.642C126.975 139.918 122.76 139.243 118.264 138.683C113.305 138.057 108.016 137.58 102.479 137.317C101.553 137.268 100.611 137.235 99.6689 137.202C92.4129 136.955 84.7429 137.103 76.8759 137.828C72.9919 138.19 69.0739 138.684 65.1239 139.359C63.7359 139.573 62.3469 139.836 60.9419 140.116C57.1739 140.84 53.3719 141.746 49.5869 142.832V91.3576L62.2809 85.0366L62.8099 84.7736L69.4219 85.0536V53.4976L100.827 32.0986L120.662 50.2056L122.315 76.5426L137.654 73.6616L158.678 89.7116Z" fill="#B7B78C"/>
<path d="M185.124 168.724L151.791 200C151.791 200 117.907 155.556 31.681 200C31.681 200 74.381 162.14 140.496 178.601C140.496 178.601 99.174 152.264 23.141 191.77C23.141 191.77 77.686 145.679 153.72 172.017C153.72 172.017 109.092 137.449 13.224 181.894C13.224 181.894 85.951 132.511 161.984 163.787C161.984 163.787 99.174 124.281 4.95898 175.31C4.95898 175.309 110.744 106.173 185.124 168.724Z" fill="#E2E2C1"/>
<path d="M152.066 96.2961L150.628 145.3C146.066 143.967 139.256 142.189 130.859 140.642V81.2021L152.066 96.2961Z" fill="#0026A5"/>
<path d="M118.265 138.683C113.306 138.057 108.017 137.58 102.48 137.317C101.554 137.268 100.612 137.235 99.6701 137.202L94.2151 41.9756C94.2151 41.9756 112.319 58.1986 112.397 58.4366C114.675 70.3966 115.146 88.2246 115.146 88.2246L118.265 138.683Z" fill="#0026A5"/>
<path d="M130.859 81.2021V140.642C126.975 139.918 122.76 139.243 118.264 138.683C113.305 138.057 108.016 137.58 102.479 137.317V88.0661L114.347 85.2021L130.859 81.2021Z" fill="#3F9EFF"/>
<path d="M60.9421 140.115C57.1741 140.839 53.3721 141.745 49.5871 142.831C47.3891 143.44 45.1741 144.115 42.9751 144.856V97.9419L59.5041 89.7119L60.9421 140.115Z" fill="#3F9EFF"/>
<path d="M76.8759 137.827C72.9919 138.189 69.0739 138.683 65.1239 139.358C63.7359 139.572 62.3469 139.835 60.9419 140.115L59.5039 89.7119L62.5779 90.5839L71.0739 93.0039L76.8759 137.827Z" fill="#0026A5"/>
<path d="M99.67 137.202C92.414 136.955 84.744 137.103 76.877 137.828C72.993 138.19 69.075 138.684 65.125 139.359C65.125 139.359 62.856 75.0886 61.158 63.3756C61.442 63.3596 93.948 42.2476 94.216 41.9766C99.7 59.7996 99.67 137.202 99.67 137.202Z" fill="#3F9EFF"/>
<path d="M67.094 65.3857L71.003 63.1377V71.1217L67.094 73.3497V65.3857Z" fill="white"/>
<path d="M68.0718 81.1044L71.9798 79.3574V85.7894L68.0718 87.2684V81.1044Z" fill="white"/>
<path d="M69.0491 96.0202L72.9571 94.8232V100.953L69.0491 101.941V96.0202Z" fill="white"/>
<path d="M69.0491 111.378L72.9571 110.386V115.903L69.0491 116.516V111.378Z" fill="white"/>
<path d="M69.0491 126.09L72.9571 125.593V131.15L69.0491 131.446V126.09Z" fill="#0026A5"/>
<path d="M76.865 59.7662L81.262 57.2412V65.2792L76.865 67.7842V59.7662Z" fill="white"/>
<path d="M77.842 76.3235L82.239 74.3525V81.5005L77.842 83.1645V76.3235Z" fill="white"/>
<path d="M78.8188 92.4583L83.2158 91.1113V97.7863L78.8188 98.9003V92.4583Z" fill="white"/>
<path d="M78.8188 108.771L83.2158 107.656V114.156L78.8188 114.847V108.771Z" fill="white"/>
<path d="M78.8188 124.849L83.2158 124.294V130.366L78.8188 130.702V124.849Z" fill="#0026A5"/>
<path d="M45.9299 99.787L49.8389 98.041V104.473L45.9299 105.952V99.787Z" fill="white"/>
<path d="M45.9651 111.29L49.8731 110.093V116.224L45.9651 117.211V111.29Z" fill="#0026A5"/>
<path d="M45.9651 123.236L49.8731 122.243V127.761L45.9651 128.374V123.236Z" fill="#0026A5"/>
<path d="M45.9651 134.534L49.8731 134.038V139.594L45.9651 139.891V134.534Z" fill="#0026A5"/>
<path d="M51.9319 96.8206L56.3289 94.8496V101.998L51.9319 103.661V96.8206Z" fill="white"/>
<path d="M52.438 108.938L56.835 107.59V114.265L52.438 115.38V108.938Z" fill="white"/>
<path d="M52.438 121.233L56.835 120.119V126.619L52.438 127.309V121.233Z" fill="#0026A5"/>
<path d="M52.438 133.294L56.835 132.739V138.811L52.438 139.147V133.294Z" fill="#0026A5"/>
<path d="M91.521 51.3389V59.4299L87.125 61.9359V53.8689L91.521 51.3389Z" fill="white"/>
<path d="M88.1021 71.302L92.498 69.332V77.189L88.1021 78.853V71.302Z" fill="white"/>
<path d="M89.0791 88.7279L93.4761 87.3799V94.5999L89.0791 95.7149V88.7279Z" fill="white"/>
<path d="M89.0791 106.027L93.4761 104.913V112.396L89.0791 113.092V106.027Z" fill="#0026A5"/>
<path d="M89.0791 123.55L93.4761 122.991V129.588L89.0791 129.924V123.55Z" fill="#0026A5"/>
<path d="M106.031 93.7566L112.374 91.7686L112.435 101.418L106.09 103.069L106.031 93.7566Z" fill="white"/>
<path d="M106.173 110.116L112.519 108.466L112.578 117.862L106.229 118.901L106.173 110.116Z" fill="white"/>
<path d="M106.307 126.138L112.658 125.297L112.714 134.074L106.361 134.599L106.307 126.138Z" fill="#0026A5"/>
<path d="M120.832 89.1208L127.176 87.1328L127.242 97.5698L120.896 99.2198L120.832 89.1208Z" fill="white"/>
<path d="M120.98 106.482L127.326 104.832L127.394 115.649L121.044 116.694L120.98 106.482Z" fill="#0026A5"/>
<path d="M121.126 124.168L127.477 123.319L127.537 132.856L121.184 133.381L121.126 124.168Z" fill="#0026A5"/>
</g>
<defs>
<clipPath id="clip0_38_274">
<rect width="200" height="200" fill="white"/>
</clipPath>
</defs>
</svg>
