<svg width="100" height="100" viewBox="0 0 100 100" fill="none" xmlns="http://www.w3.org/2000/svg">
<g clip-path="url(#clip0_96_2860)">
<path d="M100 51.4895L78.5125 73.6625C78.5125 73.6625 78.248 73.5635 77.744 73.399C77.1985 73.218 76.38 72.9545 75.314 72.65C73.033 71.9835 69.628 71.0945 65.4295 70.321C63.4875 69.959 61.38 69.6215 59.132 69.3415C56.6525 69.0285 54.008 68.79 51.2395 68.6585C50.7765 68.634 50.3055 68.6175 49.8345 68.601C46.2065 68.4775 42.3715 68.5515 38.438 68.914C36.496 69.095 34.537 69.342 32.562 69.6795C31.868 69.7865 31.1735 69.918 30.471 70.058C28.587 70.42 26.686 70.873 24.7935 71.416C23.6945 71.7205 22.587 72.058 21.4875 72.4285C20.3635 72.807 19.248 73.2185 18.132 73.663L0 54.7325L47.884 0L100 51.4895Z" fill="#E2E2C1"/>
<path d="M79.339 44.8553L77.7439 73.3983C77.1985 73.2173 76.38 72.9538 75.314 72.6493C73.033 71.9828 69.6279 71.0938 65.4295 70.3203C63.4874 69.9583 61.38 69.6208 59.132 69.3408C56.6525 69.0278 54.008 68.7893 51.2395 68.6578C50.7765 68.6333 50.3055 68.6168 49.8345 68.6003C46.2065 68.4768 42.3715 68.5508 38.438 68.9133C36.496 69.0943 34.537 69.3413 32.562 69.6788C31.868 69.7858 31.1735 69.9173 30.471 70.0573C28.587 70.4193 26.686 70.8723 24.7935 71.4153V45.6783L31.1405 42.5178L31.405 42.3863L34.711 42.5263V26.7483L50.4135 16.0488L60.331 25.1023L61.1575 38.2708L68.827 36.8303L79.339 44.8553Z" fill="#B7B78C"/>
<path d="M92.562 84.3607L75.8955 99.9987C75.8955 99.9987 58.9535 77.7767 15.8405 99.9987C15.8405 99.9987 37.1905 81.0687 70.248 89.2992C70.248 89.2992 49.587 76.1307 11.5705 95.8837C11.5705 95.8837 38.843 72.8382 76.86 86.0072C76.86 86.0072 54.546 68.7232 6.61199 90.9457C6.61199 90.9457 42.9755 66.2542 80.992 81.8922C80.992 81.8922 49.587 62.1392 2.47949 87.6537C2.47949 87.6532 55.372 53.0852 92.562 84.3607Z" fill="#E2E2C1"/>
<path d="M76.0329 48.1476L75.3139 72.6496C73.0329 71.9831 69.6279 71.0941 65.4294 70.3206V40.6006L76.0329 48.1476Z" fill="#0026A5"/>
<path d="M59.1324 69.3418C56.6529 69.0288 54.0084 68.7903 51.2399 68.6588C50.7769 68.6343 50.3059 68.6178 49.8349 68.6013L47.1074 20.9883C47.1074 20.9883 56.1594 29.0998 56.1984 29.2188C57.3374 35.1988 57.5729 44.1128 57.5729 44.1128L59.1324 69.3418Z" fill="#0026A5"/>
<path d="M65.4295 40.6006V70.3206C63.4875 69.9586 61.38 69.6211 59.132 69.3411C56.6525 69.0281 54.008 68.7896 51.2395 68.6581V44.0326L57.1735 42.6006L65.4295 40.6006Z" fill="#3F9EFF"/>
<path d="M30.471 70.0579C28.587 70.4199 26.686 70.8729 24.7935 71.4159C23.6945 71.7204 22.587 72.0579 21.4875 72.4284V48.9714L29.752 44.8564L30.471 70.0579Z" fill="#3F9EFF"/>
<path d="M38.438 68.9139C36.496 69.0949 34.537 69.3419 32.562 69.6794C31.868 69.7864 31.1735 69.9179 30.471 70.0579L29.752 44.8564L31.289 45.2924L35.537 46.5024L38.438 68.9139Z" fill="#0026A5"/>
<path d="M49.8351 68.6008C46.2071 68.4773 42.3721 68.5513 38.4386 68.9138C36.4966 69.0948 34.5376 69.3418 32.5626 69.6793C32.5626 69.6793 31.4281 37.5443 30.5791 31.6878C30.7211 31.6798 46.9741 21.1238 47.1081 20.9883C49.8501 29.8998 49.8351 68.6008 49.8351 68.6008Z" fill="#3F9EFF"/>
<path d="M33.5469 32.6924L35.5014 31.5684V35.5604L33.5469 36.6744V32.6924Z" fill="white"/>
<path d="M34.0359 40.5522L35.9899 39.6787V42.8947L34.0359 43.6342V40.5522Z" fill="white"/>
<path d="M34.5247 48.0106L36.4787 47.4121V50.4771L34.5247 50.9711V48.0106Z" fill="white"/>
<path d="M34.5247 55.6884L36.4787 55.1924V57.9509L34.5247 58.2574V55.6884Z" fill="white"/>
<path d="M34.5247 63.0444L36.4787 62.7959V65.5744L34.5247 65.7224V63.0444Z" fill="#0026A5"/>
<path d="M38.4326 29.8836L40.6311 28.6211V32.6401L38.4326 33.8926V29.8836Z" fill="white"/>
<path d="M38.9209 38.1623L41.1194 37.1768V40.7508L38.9209 41.5828V38.1623Z" fill="white"/>
<path d="M39.4094 46.2292L41.6079 45.5557V48.8932L39.4094 49.4502V46.2292Z" fill="white"/>
<path d="M39.4094 54.3856L41.6079 53.8281V57.0781L39.4094 57.4236V54.3856Z" fill="white"/>
<path d="M39.4094 62.425L41.6079 62.1475V65.1835L39.4094 65.3515V62.425Z" fill="#0026A5"/>
<path d="M22.9648 49.8935L24.9193 49.0205V52.2365L22.9648 52.976V49.8935Z" fill="white"/>
<path d="M22.9824 55.6444L24.9364 55.0459V58.1114L22.9824 58.6049V55.6444Z" fill="#0026A5"/>
<path d="M22.9824 61.6186L24.9364 61.1221V63.8811L22.9824 64.1876V61.6186Z" fill="#0026A5"/>
<path d="M22.9824 67.2675L24.9364 67.0195V69.7975L22.9824 69.946V67.2675Z" fill="#0026A5"/>
<path d="M25.9661 48.4103L28.1646 47.4248V50.9988L25.9661 51.8303V48.4103Z" fill="white"/>
<path d="M26.219 54.4689L28.4175 53.7949V57.1324L26.219 57.6899V54.4689Z" fill="white"/>
<path d="M26.219 60.6166L28.4175 60.0596V63.3096L26.219 63.6546V60.6166Z" fill="#0026A5"/>
<path d="M26.219 66.6476L28.4175 66.3701V69.4061L26.219 69.5741V66.6476Z" fill="#0026A5"/>
<path d="M45.7605 25.6699V29.7154L43.5625 30.9684V26.9349L45.7605 25.6699Z" fill="white"/>
<path d="M44.051 35.652L46.249 34.667V38.5955L44.051 39.4275V35.652Z" fill="white"/>
<path d="M44.5396 44.3644L46.7381 43.6904V47.3004L44.5396 47.8579V44.3644Z" fill="white"/>
<path d="M44.5396 53.014L46.7381 52.457V56.1985L44.5396 56.5465V53.014Z" fill="#0026A5"/>
<path d="M44.5396 61.7756L46.7381 61.4961V64.7946L44.5396 64.9626V61.7756Z" fill="#0026A5"/>
<path d="M53.0156 46.8788L56.1871 45.8848L56.2176 50.7093L53.0451 51.5348L53.0156 46.8788Z" fill="white"/>
<path d="M53.0864 55.0574L56.2594 54.2324L56.2889 58.9304L53.1144 59.4499L53.0864 55.0574Z" fill="white"/>
<path d="M53.1536 63.068L56.3291 62.6475L56.3571 67.036L53.1806 67.2985L53.1536 63.068Z" fill="#0026A5"/>
<path d="M60.416 44.5614L63.588 43.5674L63.621 48.7859L60.448 49.6109L60.416 44.5614Z" fill="white"/>
<path d="M60.49 53.241L63.663 52.416L63.697 57.8245L60.522 58.347L60.49 53.241Z" fill="#0026A5"/>
<path d="M60.563 62.0837L63.7385 61.6592L63.7685 66.4277L60.592 66.6902L60.563 62.0837Z" fill="#0026A5"/>
</g>
<defs>
<clipPath id="clip0_96_2860">
<rect width="100" height="100" fill="white"/>
</clipPath>
</defs>
</svg>
