<svg width="64" height="64" viewBox="0 0 64 64" fill="none" xmlns="http://www.w3.org/2000/svg">
<g clip-path="url(#clip0_190_15)">
<path d="M64 32.9533L50.248 47.144C50.248 47.144 50.0787 47.0806 49.7562 46.9754C49.407 46.8595 48.8832 46.6909 48.201 46.496C46.7411 46.0694 44.5619 45.5005 41.8749 45.0054C40.632 44.7738 39.2832 44.5578 37.8445 44.3786C36.2576 44.1782 34.5651 44.0256 32.7933 43.9414C32.497 43.9258 32.1955 43.9152 31.8941 43.9046C29.5722 43.8256 27.1178 43.873 24.6003 44.105C23.3574 44.2208 22.1037 44.3789 20.8397 44.5949C20.3955 44.6634 19.951 44.7475 19.5014 44.8371C18.2957 45.0688 17.079 45.3587 15.8678 45.7062C15.1645 45.9011 14.4557 46.1171 13.752 46.3542C13.0326 46.5965 12.3187 46.8598 11.6045 47.1443L0 35.0288L30.6458 0L64 32.9533Z" fill="#E2E2C1"/>
<path d="M50.777 28.7078L49.7562 46.9753C49.4071 46.8595 48.8833 46.6909 48.201 46.496C46.7412 46.0694 44.562 45.5005 41.875 45.0054C40.6321 44.7737 39.2833 44.5577 37.8446 44.3785C36.2577 44.1782 34.5652 44.0256 32.7934 43.9414C32.497 43.9257 32.1956 43.9152 31.8942 43.9046C29.5722 43.8256 27.1178 43.8729 24.6004 44.1049C23.3575 44.2208 22.1038 44.3789 20.8398 44.5949C20.3956 44.6633 19.9511 44.7475 19.5015 44.8371C18.2958 45.0688 17.0791 45.3587 15.8679 45.7062V29.2345L19.93 27.2118L20.0993 27.1277L22.2151 27.2173V17.1193L32.2647 10.2717L38.6119 16.0659L39.1409 24.4937L44.0494 23.5718L50.777 28.7078Z" fill="#B7B78C"/>
<path d="M59.2397 53.9917L48.5732 64C48.5732 64 37.7303 49.7779 10.138 64C10.138 64 23.802 51.8848 44.9588 57.1523C44.9588 57.1523 31.7357 48.7245 7.40515 61.3664C7.40515 61.3664 24.8596 46.6173 49.1904 55.0455C49.1904 55.0455 34.9095 43.9837 4.23171 58.2061C4.23171 58.2061 27.5044 42.4035 51.8349 52.4119C51.8349 52.4119 31.7357 39.7699 1.58691 56.0992C1.58691 56.0989 35.4381 33.9754 59.2397 53.9917Z" fill="#E2E2C1"/>
<path d="M48.661 30.8147L48.2008 46.496C46.741 46.0694 44.5618 45.5005 41.8748 45.0054V25.9846L48.661 30.8147Z" fill="#0026A5"/>
<path d="M37.8449 44.3785C36.258 44.1782 34.5656 44.0256 32.7937 43.9414C32.4974 43.9258 32.196 43.9152 31.8945 43.9046L30.1489 13.4323C30.1489 13.4323 35.9422 18.6237 35.9672 18.6998C36.6961 22.527 36.8468 28.232 36.8468 28.232L37.8449 44.3785Z" fill="#0026A5"/>
<path d="M41.8748 25.9846V45.0054C40.6319 44.7737 39.2831 44.5577 37.8444 44.3785C36.2575 44.1782 34.5651 44.0256 32.7932 43.9414V28.1811L36.591 27.2646L41.8748 25.9846Z" fill="#3F9EFF"/>
<path d="M19.5014 44.8368C18.2956 45.0685 17.079 45.3584 15.8678 45.7059C15.1644 45.9008 14.4556 46.1168 13.752 46.3539V31.3414L19.0412 28.7078L19.5014 44.8368Z" fill="#3F9EFF"/>
<path d="M24.6003 44.1046C23.3574 44.2205 22.1037 44.3785 20.8397 44.5945C20.3955 44.663 19.951 44.7472 19.5014 44.8368L19.0413 28.7078L20.0249 28.9869L22.7437 29.7613L24.6003 44.1046Z" fill="#0026A5"/>
<path d="M31.8944 43.9046C29.5725 43.8256 27.1181 43.8729 24.6006 44.1049C23.3578 44.2208 22.104 44.3789 20.84 44.5949C20.84 44.5949 20.1139 24.0285 19.5706 20.2803C19.6614 20.2752 30.0634 13.5193 30.1491 13.4326C31.904 19.136 31.8944 43.9046 31.8944 43.9046Z" fill="#3F9EFF"/>
<path d="M21.4702 20.9235L22.7211 20.2042V22.759L21.4702 23.472V20.9235Z" fill="white"/>
<path d="M21.783 25.9533L23.0335 25.3942V27.4525L21.783 27.9257V25.9533Z" fill="white"/>
<path d="M22.0957 30.7264L23.3463 30.3434V32.305L22.0957 32.6211V30.7264Z" fill="white"/>
<path d="M22.0957 35.641L23.3463 35.3235V37.089L22.0957 37.2851V35.641Z" fill="white"/>
<path d="M22.0957 40.3488L23.3463 40.1898V41.968L22.0957 42.0627V40.3488Z" fill="#0026A5"/>
<path d="M24.5967 19.1251L26.0037 18.3171V20.8893L24.5967 21.6909V19.1251Z" fill="white"/>
<path d="M24.9094 24.4237L26.3165 23.793V26.0803L24.9094 26.6128V24.4237Z" fill="white"/>
<path d="M25.2222 29.5866L26.6292 29.1555V31.2915L25.2222 31.648V29.5866Z" fill="white"/>
<path d="M25.2222 34.8067L26.6292 34.45V36.53L25.2222 36.7511V34.8067Z" fill="white"/>
<path d="M25.2222 39.9516L26.6292 39.774V41.7171L25.2222 41.8246V39.9516Z" fill="#0026A5"/>
<path d="M14.6975 31.9318L15.9484 31.3731V33.4313L14.6975 33.9046V31.9318Z" fill="white"/>
<path d="M14.7087 35.6128L15.9593 35.2297V37.1917L14.7087 37.5075V35.6128Z" fill="#0026A5"/>
<path d="M14.7087 39.4355L15.9593 39.1177V40.8835L14.7087 41.0797V39.4355Z" fill="#0026A5"/>
<path d="M14.7087 43.0509L15.9593 42.8922V44.6701L14.7087 44.7651V43.0509Z" fill="#0026A5"/>
<path d="M16.6182 30.9827L18.0252 30.352V32.6393L16.6182 33.1715V30.9827Z" fill="white"/>
<path d="M16.7803 34.8602L18.1873 34.4288V36.5648L16.7803 36.9216V34.8602Z" fill="white"/>
<path d="M16.7803 38.7945L18.1873 38.438V40.518L16.7803 40.7389V38.7945Z" fill="#0026A5"/>
<path d="M16.7803 42.6541L18.1873 42.4765V44.4195L16.7803 44.5271V42.6541Z" fill="#0026A5"/>
<path d="M29.2866 16.4285V19.0176L27.8799 19.8195V17.2381L29.2866 16.4285Z" fill="white"/>
<path d="M28.1926 22.8167L29.5993 22.1863V24.7005L28.1926 25.233V22.8167Z" fill="white"/>
<path d="M28.5054 28.393L29.9124 27.9616V30.272L28.5054 30.6288V28.393Z" fill="white"/>
<path d="M28.5054 33.9286L29.9124 33.5721V35.9667L28.5054 36.1894V33.9286Z" fill="#0026A5"/>
<path d="M28.5054 39.536L29.9124 39.3571V41.4682L28.5054 41.5757V39.536Z" fill="#0026A5"/>
<path d="M33.9299 30.0022L35.9597 29.3661L35.9792 32.4538L33.9488 32.9821L33.9299 30.0022Z" fill="white"/>
<path d="M33.9753 35.2371L36.0061 34.7091L36.0249 37.7158L33.9933 38.0483L33.9753 35.2371Z" fill="white"/>
<path d="M34.0183 40.3642L36.0506 40.095L36.0686 42.9037L34.0356 43.0717L34.0183 40.3642Z" fill="#0026A5"/>
<path d="M38.6663 28.5187L40.6963 27.8826L40.7175 31.2224L38.6867 31.7504L38.6663 28.5187Z" fill="white"/>
<path d="M38.7136 34.0743L40.7443 33.5463L40.7661 37.0077L38.7341 37.3421L38.7136 34.0743Z" fill="#0026A5"/>
<path d="M38.7603 39.7338L40.7926 39.4621L40.8118 42.5139L38.7788 42.6819L38.7603 39.7338Z" fill="#0026A5"/>
</g>
<defs>
<clipPath id="clip0_190_15">
<rect width="64" height="64" fill="white"/>
</clipPath>
</defs>
</svg>
